<?xml version="1.0" standalone="no"?>
<!DOCTYPE svg PUBLIC "-//W3C//DTD SVG 20010904//EN"
 "http://www.w3.org/TR/2001/REC-SVG-20010904/DTD/svg10.dtd">
<svg version="1.0" xmlns="http://www.w3.org/2000/svg"
 width="500.000000pt" height="500.000000pt" viewBox="0 0 500.000000 500.000000"
 preserveAspectRatio="xMidYMid meet">
<metadata>
Created by potrace 1.14, written by Peter Selinger 2001-2017
</metadata>
<g transform="translate(0.000000,500.000000) scale(0.100000,-0.100000)"
fill="#000000" stroke="none">
<path d="M2290 4726 c-209 -47 -385 -157 -499 -314 -52 -71 -71 -77 -168 -57
-85 18 -111 18 -198 0 -238 -50 -406 -257 -405 -499 1 -266 224 -496 481 -496
38 0 69 -4 69 -9 0 -5 25 -328 56 -718 30 -389 53 -729 50 -754 -2 -26 -1 -50
4 -55 4 -5 11 -54 14 -109 8 -124 18 -156 56 -178 73 -43 217 -77 409 -97 135
-13 498 -13 637 1 195 19 370 64 424 107 23 18 39 105 40 209 0 28 5 55 10 58
7 4 9 24 5 48 -8 58 102 1452 117 1476 8 13 28 20 72 25 117 12 262 104 337
212 16 24 42 74 56 111 23 59 27 82 26 173 -1 162 -46 265 -163 374 -68 63
-144 102 -238 122 -85 18 -114 17 -203 -1 -52 -11 -75 -12 -85 -4 -7 6 -18 8
-23 4 -6 -3 -21 11 -34 32 -39 62 -152 170 -226 218 -87 56 -200 102 -298 121
-89 17 -246 17 -323 0z"/>
<path d="M1417 1543 c-18 -17 1 -48 98 -163 58 -68 104 -128 102 -134 -9 -27
-35 -6 -142 119 -117 135 -146 156 -153 109 -2 -15 29 -58 103 -145 58 -67
104 -128 102 -133 -9 -27 -39 -2 -143 119 -111 130 -146 154 -152 109 -2 -15
29 -58 102 -144 59 -68 106 -129 106 -137 0 -34 -42 -4 -115 84 -127 151 -150
174 -169 167 -9 -3 -16 -15 -16 -26 0 -20 213 -273 270 -321 82 -70 186 -111
319 -127 47 -6 111 -21 143 -34 52 -21 348 -205 348 -216 0 -3 -105 -54 -233
-115 -127 -60 -242 -120 -254 -132 -49 -48 -15 -112 73 -140 88 -27 125 -14
383 136 127 74 229 127 236 123 6 -4 97 -62 201 -129 120 -77 206 -126 236
-133 63 -16 130 -5 168 26 37 31 39 67 6 97 -13 12 -119 73 -235 136 l-212
114 78 44 c181 103 287 130 445 111 156 -18 374 5 485 53 66 28 155 92 204
147 139 154 138 293 -2 388 -26 17 -79 41 -120 55 -65 21 -92 24 -224 24 -127
0 -162 -4 -230 -23 -115 -33 -239 -97 -295 -152 -80 -78 -98 -127 -100 -278 0
-49 -67 -98 -250 -185 l-175 -84 -170 93 c-195 106 -231 133 -264 198 -31 60
-88 111 -182 166 -97 57 -94 54 -226 208 -106 123 -129 143 -146 125z"/>
</g>
</svg>
